<svg width="147" height="40" viewBox="0 0 147 40" fill="none" xmlns="http://www.w3.org/2000/svg">
<g clip-path="url(#clip0_24_1118)">
<path d="M34.0113 0H5.78571C5.78571 0 0 0 0 5.78571V34.0113C0 34.0113 0 39.797 5.78571 39.797H34.0113C34.0113 39.797 39.797 39.797 39.797 34.0113V5.78571C39.797 5.78571 39.797 0 34.0113 0ZM26.1128 29.1692L21.2632 34.3158L19.9211 35.5038C18.1466 33.812 16.2444 31.7105 14.1579 29.515C10.2632 25.7331 6.47368 20.7556 6.47368 14.891C6.47368 14.6165 6.48496 14.3383 6.51128 14.0639C6.90226 9.90226 10.1015 6.76692 13.9549 6.76692C16.3759 6.76692 18.5977 8.02632 19.9887 10.0827V10.0526C21.3797 7.99624 23.5977 6.73684 26.0226 6.73684C29.8759 6.73684 33.0789 9.87594 33.4662 14.0338C33.4925 14.3083 33.5038 14.5865 33.5038 14.8609C33.5038 20.7293 29.1654 25.4925 26.109 29.1767L26.1128 29.1692Z" fill="white"/>
<path d="M26.1203 18.6842H21.7782V14.094C21.7782 14.094 21.7782 13.515 21.0564 13.515H19.0226C19.0226 13.515 18.3008 13.515 18.3008 14.094V18.6842H13.8609C13.8609 18.6842 13.282 18.6842 13.282 19.4023V21.4361C13.282 21.4361 13.282 22.1579 13.8609 22.1579H18.3008V26.3496C18.3008 26.3496 18.3008 26.9286 19.0226 26.9286H21.0564C21.0564 26.9286 21.7782 26.9286 21.7782 26.3496V22.1579H26.1203C26.1203 22.1579 26.6993 22.1579 26.6993 21.4361V19.4023C26.6993 19.4023 26.6993 18.6842 26.1203 18.6842Z" fill="white"/>
<path d="M128.011 1.10151H134.601C141.883 1.10151 146.955 5.82707 146.955 12.6278C146.955 16.0113 145.402 19.3233 142.778 21.4624C140.571 23.3271 138.053 24.1203 134.568 24.1203H128.011V1.10151ZM133.707 20.218C136.605 20.218 138.432 19.6654 139.85 18.391C141.402 17.0113 142.335 14.8008 142.335 12.594C142.335 10.3872 141.402 8.24812 139.85 6.86466C138.365 5.5188 136.605 5 133.707 5H132.5V20.218H133.707Z" fill="white"/>
<path d="M115.763 5V10.1053H123.699V14.0038H115.763V20.2143H124.011V24.1128H111.278V1.10151H124.011V5H115.763Z" fill="white"/>
<path d="M98.7219 24.1165V5H93.5828V1.10151H108.384V5H103.207V24.1165H98.7219Z" fill="white"/>
<path d="M84.3685 5V10.1053H91.579V14.0038H84.3685V24.1128H79.8835V1.10151H92.064V5H84.3685Z" fill="white"/>
<path d="M75.2933 24.1165H70.8083V1.10151H75.2933V24.1165Z" fill="white"/>
<path d="M67.6691 11.797V12.5226C67.6691 19.9398 63.3232 24.6353 56.4548 24.6353C49.5864 24.6353 44.3796 19.6316 44.3796 12.7293C44.3796 5.82707 49.5187 0.582706 56.5939 0.582706C60.8721 0.582706 64.2894 2.44737 66.4623 6L62.53 8.10526C61.1503 5.82707 59.1503 4.68797 56.4924 4.68797C52.2142 4.68797 49.0037 8.1391 49.0037 12.7256C49.0037 17.312 52.2142 20.5601 56.5263 20.5601C59.8045 20.5601 62.218 18.6278 62.5638 15.6955H57.1466V11.797H67.6691Z" fill="white"/>
<path d="M53.2218 33.4511V29.4662H55.2294V39.7707H53.2218V35.1992H48.8647V39.7707H46.8572V29.4662H48.8647V33.4511H53.2218Z" fill="white"/>
<path d="M60.9135 31.2105V33.4962H64.4662V35.2406H60.9135V38.0226H64.6053V39.7669H58.906V29.4624H64.6053V31.2068H60.9135V31.2105Z" fill="white"/>
<path d="M69.733 37.5902L68.8044 39.7669H66.6729L71.139 29.2481H72.6541L76.9811 39.7669H74.8345L73.9548 37.5902H69.7368H69.733ZM71.8796 32.2594L70.3796 35.9662H73.3157L71.8796 32.2594Z" fill="white"/>
<path d="M81.5 38.0226H84.6655V39.7669H79.4888V29.4624H81.4963V38.0188L81.5 38.0226Z" fill="white"/>
<path d="M88.0039 39.7707V31.2143H85.7031V29.4699H92.3309V31.2143H90.0152V39.7707H88.0076H88.0039Z" fill="white"/>
<path d="M101.286 33.4511V29.4662H103.293V39.7707H101.286V35.1992H96.9287V39.7707H94.9211V29.4662H96.9287V33.4511H101.286Z" fill="white"/>
<path d="M114.399 32.2293C113.564 31.4098 112.838 31.0714 111.88 31.0714C109.996 31.0714 108.511 32.6316 108.511 34.609C108.511 36.6955 109.947 38.1617 111.97 38.1617C112.88 38.1617 113.594 37.8383 114.395 37.0338V39.3985C113.485 39.8308 112.741 40 111.876 40C108.816 40 106.44 37.6504 106.44 34.6241C106.44 31.5977 108.88 29.2331 111.925 29.2331C112.79 29.2331 113.515 29.4173 114.399 29.8647V32.2293Z" fill="white"/>
<path d="M119.775 37.5902L118.846 39.7669H116.714L121.181 29.2481H122.696L127.023 39.7669H124.876L123.996 37.5902H119.778H119.775ZM121.921 32.2594L120.421 35.9662H123.357L121.921 32.2594Z" fill="white"/>
<path d="M137.056 39.7707H134.587L131.805 35.6316H131.541V39.7707H129.534V29.4662H132.515C134.831 29.4662 136.162 30.5789 136.162 32.5075C136.162 34.0827 135.327 35.1165 133.812 35.4286L137.056 39.7707ZM132.132 34.2068C133.414 34.2068 134.094 33.6504 134.094 32.6165C134.094 31.5827 133.414 31.0865 132.162 31.0865H131.545V34.2068H132.132Z" fill="white"/>
<path d="M141.722 31.2105V33.4962H145.274V35.2406H141.722V38.0226H145.414V39.7669H139.714V29.4624H145.414V31.2068H141.722V31.2105Z" fill="white"/>
</g>
<defs>
<clipPath id="clip0_24_1118">
<rect width="146.955" height="40" fill="white"/>
</clipPath>
</defs>
</svg>
